<?xml version="1.0" encoding="UTF-8" standalone="no"?>
<svg
   id="achi"
   data-name="achi"
   viewBox="0 0 1024 1024"
   version="1.1"
   width="1024"
   height="1024"
   xmlns="http://www.w3.org/2000/svg"
   xmlns:svg="http://www.w3.org/2000/svg"
   xmlns:rdf="http://www.w3.org/1999/02/22-rdf-syntax-ns#"
   xmlns:cc="http://creativecommons.org/ns#"
   xmlns:dc="http://purl.org/dc/elements/1.1/">
  <defs
     id="defs11">
    <style
       id="style9">.cls-1{fill:#fff;}.cls-2{fill:#1d1d1b;fill-rule:evenodd;}</style>
  </defs>
  <g
     id="g115"
     transform="matrix(1.0052152,0,0,1.0049175,-32.720511,-19.639304)">
    <path
       id="C"
       class="cls-1"
       d="m 519.83878,1038.0353 c -274.36,-10.88 -488.799997,-239.09003 -487.279997,-509.00003 -1.4,-285.73 235.399997,-517.11 522.339997,-509.3 289.55,7.1 506.10002,250.41 496.00002,525.2 -8,284.33 -248.00002,505.74003 -531.07002,493.08003 z"
       style="display:inline" />
    <path
       id="A"
       class="cls-2"
       d="m 649.80878,602.63527 c -34,1.8 -70.37,2.89 -106.79,2.9 -36.42,0.01 -73,-1.07 -107.39,-2.87 l -19.48,56.53 c 41.56,1.72 82.73,2 122,2.07 41.76,0 85.75,-0.2 130.1,-2.05 z m -185.17,-75.52 c 51.64,1.67 105,1.63 156.59,-0.12 l -78.27,-237.88 z m 268.26,333.29 -50.39,-156.71 c -56.05,2.54 -110.45,2.81 -145.18,2.75 -30.24,0 -80.93,-0.85 -134.14,-3.51 l -51.78,157.47 h -123.77 l 58.36,-167.24 c -28.84,-3.8 -53.5,-8.64 -69.74,-14.79 l -17.66,-48.48 c 32.8,9 67.29,15.39 102.51,20 l 19.79,-56.61 c -34.35,-4.07 -59.66,-8.61 -70.41,-12.73 l -11.72,-32.17 a 133.14,133.14 0 0 1 -14,-4 l -17.13,-47 c 36,9.86 84.29,17.36 138.88,22.52 l 125,-358.35 h 142 l 125,358.07 c 53.49,-5.15 100.73,-12.57 136.17,-22.27 l -17.13,47 a 132.11,132.11 0 0 1 -14,4 l -11.72,32.17 c -10.54,4 -34.76,8.49 -67.68,12.51 l 19.82,56.77 c 35.33,-4.59 69.84,-11 102.52,-19.94 l -17.66,48.48 c -17.27,6.69 -41.54,11.69 -69.48,15.6 l 58.09,166.46 z" />
  </g>
</svg>
