<?xml version="1.0" encoding="utf-8"?>
<svg version="1.1" id="layer_1" xmlns="http://www.w3.org/2000/svg" xmlns:xlink="http://www.w3.org/1999/xlink" x="0px" y="0px"
	 viewBox="0 0 150 58" style="enable-background:new 0 0 150 58;" xml:space="preserve">
<style type="text/css">
	.st0{fill-rule:evenodd;clip-rule:evenodd;fill:#1D1D1B;}
	.st1{fill:#1D1D1B;}
</style>
<g>
	<path id="Achi" class="st0" d="M37.5,35.9c-2.7,0.1-5.6,0.2-8.5,0.2s-5.8-0.1-8.6-0.2l-1.6,4.5c3.3,0.1,6.6,0.2,9.8,0.2
		c3.3,0,6.9,0,10.4-0.2L37.5,35.9z M22.7,29.9c4.1,0.1,8.4,0.1,12.5,0l-6.3-19L22.7,29.9z M44.2,56.6l-4-12.5
		c-4.5,0.2-8.8,0.2-11.6,0.2c-2.4,0-6.5-0.1-10.7-0.3l-4.1,12.6H3.7l4.7-13.4c-2.3-0.3-4.3-0.7-5.6-1.2l-1.4-3.9
		c2.6,0.7,5.4,1.2,8.2,1.6l1.6-4.5c-2.7-0.3-4.8-0.7-5.6-1l-0.9-2.6c-0.4-0.1-0.8-0.2-1.1-0.3l-1.4-3.8c2.9,0.8,6.7,1.4,11.1,1.8
		l10-28.7h11.4l10,28.6c4.3-0.4,8.1-1,10.9-1.8l-1.4,3.8c-0.4,0.1-0.7,0.2-1.1,0.3l-0.9,2.6c-0.8,0.3-2.8,0.7-5.4,1l1.6,4.5
		c2.8-0.4,5.6-0.9,8.2-1.6L55,42c-1.4,0.5-3.3,0.9-5.6,1.2l4.6,13.3H44.2z"/>
	<path class="st1" d="M82,57.3c-5.9,0-10.8-2-14.6-5.9s-5.8-8.8-5.8-14.5c0-5.8,1.9-10.6,5.8-14.5c3.8-3.9,8.7-5.9,14.6-5.9
		c3.5,0,6.8,0.8,9.8,2.5s5.3,3.9,7,6.7l-6.7,3.9c-1-1.7-2.4-3.2-4.1-4.1c-1.8-1-3.8-1.5-6-1.5c-3.8,0-6.9,1.2-9.2,3.6
		s-3.5,5.5-3.5,9.3c0,3.8,1.2,6.9,3.5,9.2c2.3,2.4,5.4,3.6,9.2,3.6c2.2,0,4.3-0.5,6.1-1.5c1.8-1,3.2-2.3,4.1-4.1l6.7,3.9
		c-1.7,2.8-4,5.1-7,6.7C88.9,56.5,85.6,57.3,82,57.3z"/>
	<path class="st1" d="M125.9,17.4h7.7v39.2h-7.7V40.3h-14.6v16.2h-7.7V17.4h7.7v15.6h14.6V17.4z"/>
	<path class="st1" d="M140.9,17.4h7.7v39.2h-7.7V17.4z"/>
</g>
</svg>
