<?xml version="1.0" encoding="UTF-8"?>
<svg id="achi" width="150" height="58" version="1.1" viewBox="0 0 150 58" xmlns="http://www.w3.org/2000/svg">
 <defs>
  <style>.cls-1,.cls-2{fill:#1d1d1b;}.cls-1{fill-rule:evenodd;}</style>
 </defs>
 <path id="ew" class="cls-1" transform="translate(-2.28 -.75)" d="m38.55 36.2c-2.74 0.14-5.66 0.23-8.58 0.23s-5.87-0.08-8.64-0.23l-1.56 4.54c3.34 0.14 6.65 0.17 9.8 0.17 3.36 0 6.9 0 10.46-0.16zm-14.88-6.07c4.15 0.13 8.44 0.13 12.58 0l-6.25-19.13zm21.55 26.79-4-12.6c-4.51 0.21-8.88 0.23-11.67 0.22-2.43 0-6.51-0.07-10.78-0.28l-4.2 12.66h-9.95l4.69-13.44a28.06 28.06 0 0 1-5.61-1.19l-1.42-3.9a60.35 60.35 0 0 0 8.24 1.61l1.59-4.54a29.9 29.9 0 0 1-5.66-1l-0.94-2.58a10.37 10.37 0 0 1-1.13-0.32l-1.38-3.82a69.87 69.87 0 0 0 11.16 1.81l10-28.8h11.47l10 28.78a69 69 0 0 0 10.94-1.79l-1.38 3.78a9.58 9.58 0 0 1-1.12 0.32l-0.94 2.58a28.67 28.67 0 0 1-5.44 1l1.64 4.58a61.29 61.29 0 0 0 8.24-1.6l-1.42 3.9a27 27 0 0 1-5.58 1.25l4.67 13.38z"/>
 <path class="cls-2" transform="translate(-2.28 -.75)" d="m79.7 57.7a19.7 19.7 0 0 1-14.7-5.9 20 20 0 0 1-5.8-14.57 19.94 19.94 0 0 1 5.8-14.6 19.73 19.73 0 0 1 14.7-5.88 20.06 20.06 0 0 1 9.87 2.5 18.28 18.28 0 0 1 7.06 6.75l-6.69 3.88a10.4 10.4 0 0 0-4.16-4.13 13.48 13.48 0 0 0-15.33 2.11 12.77 12.77 0 0 0-3.52 9.34 12.71 12.71 0 0 0 3.52 9.28 12.35 12.35 0 0 0 9.25 3.6 12.52 12.52 0 0 0 6.1-1.49 10.17 10.17 0 0 0 4.14-4.08l6.69 3.88a18.34 18.34 0 0 1-7 6.78 20 20 0 0 1-9.93 2.53z"/>
 <path class="cls-2" transform="translate(-2.28 -.75)" d="m123.81 17.54h7.7v39.38h-7.7v-16.32h-14.63v16.32h-7.76v-39.38h7.76v15.63h14.63z"/>
 <path class="cls-2" transform="translate(-2.28 -.75)" d="m138.83 17.54h7.76v39.38h-7.76z"/>
</svg>
